<svg viewBox="0 0 21 20" fill="none" xmlns="http://www.w3.org/2000/svg" class="stroke-current">
<path d="M9.5 3.33332H6C4.59987 3.33332 3.8998 3.33332 3.36502 3.6058C2.89462 3.84549 2.51217 4.22794 2.27248 4.69834C2 5.23312 2 5.93319 2 7.33332V14.3333C2 15.7335 2 16.4335 2.27248 16.9683C2.51217 17.4387 2.89462 17.8212 3.36502 18.0608C3.8998 18.3333 4.59987 18.3333 6 18.3333H13C14.4001 18.3333 15.1002 18.3333 15.635 18.0608C16.1054 17.8212 16.4878 17.4387 16.7275 16.9683C17 16.4335 17 15.7335 17 14.3333V10.8333M6.99998 13.3333H8.39543C8.80308 13.3333 9.00691 13.3333 9.19872 13.2873C9.36878 13.2464 9.53135 13.1791 9.68047 13.0877C9.84867 12.9847 9.9928 12.8405 10.281 12.5523L18.25 4.58332C18.9404 3.89296 18.9404 2.77368 18.25 2.08332C17.5596 1.39296 16.4404 1.39296 15.75 2.08332L7.78103 10.0523C7.49277 10.3405 7.34865 10.4847 7.24558 10.6528C7.1542 10.802 7.08686 10.9645 7.04603 11.1346C6.99998 11.3264 6.99998 11.5302 6.99998 11.9379V13.3333Z" stroke-width="1.66667" stroke-linecap="round" stroke-linejoin="round"/>
</svg>
