<svg width="24" height="25" viewBox="0 0 24 25" fill="none" xmlns="http://www.w3.org/2000/svg">
<path d="M5.43 3.83801H18.33V6.39801H22L21.23 8.94801H20.58V19.288C20.91 19.288 21.17 19.548 21.17 19.868V20.568H21.29C21.62 20.568 21.88 20.828 21.88 21.148V21.848H15.25V21.148C15.25 20.828 15.52 20.568 15.84 20.568H15.96V19.868C15.96 19.588 16.16 19.358 16.43 19.298V13.598C16.21 11.318 14.26 9.53801 11.88 9.53801C9.5 9.53801 7.55 11.328 7.34 13.608V19.308C7.64 19.358 8.03 19.588 8.03 19.878V20.578H8.15C8.48 20.578 8.74 20.838 8.74 21.158V21.858H2.12V21.158C2.12 20.838 2.39 20.578 2.71 20.578H2.83V19.878C2.83 19.558 3.1 19.298 3.42 19.298V8.94801H2.77L2 6.38801H5.43V3.83801Z" fill="#121926"/>
</svg>
