<?xml version="1.0" encoding="utf-8"?>
<!-- Generator: Adobe Illustrator 24.1.0, SVG Export Plug-In . SVG Version: 6.00 Build 0)  -->
<svg version="1.1" id="Layer_1" xmlns="http://www.w3.org/2000/svg" xmlns:xlink="http://www.w3.org/1999/xlink" x="0px" y="0px"
	 viewBox="0 0 436.9 252.2" style="enable-background:new 0 0 436.9 252.2;" xml:space="preserve">
<style type="text/css">
	.st0{fill:none;stroke:#000000;stroke-width:10;stroke-linecap:round;stroke-linejoin:round;stroke-miterlimit:10;}
</style>
<path class="st0" d="M263.5,88.4l-137.1,5.8c0,0-24.3,2.2-28.6-7.8c-14-32.6-34.9-29.6-34.9-29.6c-23.8,0-46.2,27.8-25.7,59.7
	c1.9,3,6.5,10.8,4.8,18.7c-2.1,10.2-18.8,18.4-12.9,37.7c5.2,17.1,19.5,28.8,32.2,28.8c37.3,0,31.8-34.7,42.9-36.7
	s157.7-6.2,157.7-6.2s46.1-1.5,57.1,0.6s5.6,36.7,42.9,36.7c12.7,0,27-11.7,32.2-28.8c5.9-19.3-10.8-27.4-12.9-37.7
	c-1.6-7.9,2.9-15.7,4.8-18.7c20.5-31.8-1.9-59.7-25.7-59.7c0,0-20.9-3-34.9,29.6c-4.3,10-28.6,7.8-28.6,7.8L263.5,88.4"/>
<line class="st0" x1="109.4" y1="116.8" x2="294.2" y2="111.7"/>
<line class="st0" x1="132.1" y1="31.1" x2="153.1" y2="58"/>
<line class="st0" x1="199.3" y1="12.6" x2="199.3" y2="41.2"/>
<line class="st0" x1="246.4" y1="56.3" x2="264.8" y2="23.5"/>
<line class="st0" x1="165.7" y1="185.7" x2="152.3" y2="220.1"/>
<line class="st0" x1="216.1" y1="182.3" x2="216.1" y2="215.9"/>
<line class="st0" x1="264.4" y1="182.3" x2="286.5" y2="215.1"/>
</svg>
