<svg  viewBox="0 0 80 49" fill="none" xmlns="http://www.w3.org/2000/svg">
<path d="M69.2046 40.1785C65.6634 44.0112 60.8232 46.6289 55.3902 47.3254C40.7306 50.5613 22.0252 49.3464 13.0666 37.956C11.6913 39.0418 9.95591 39.6894 8.07187 39.6894C0.956311 39.6894 -2.41463 31.2004 1.94431 26.3661C4.20204 23.6916 0.00156719 22.8484 0.00156719 17.8262C0.00156719 10.9963 8.03078 7.25169 13.2584 11.6478C17.0519 6.81345 22.6004 3.6988 28.4951 2.13952C40.0576 -0.922298 54.1655 1.7052 55.4098 2.12192C61.0678 2.85167 66.0802 5.66306 69.6546 9.76179C76.3456 8.99683 80.7397 16.5252 76.9716 21.9856C75.833 24.1377 77.1634 26.1411 78.1338 28.4731C80.8591 34.497 75.8115 41.2506 69.2046 40.1785Z" class="fill-transparent"/>
<path d="M78.1348 28.4731C77.1645 26.141 75.8341 24.1357 76.9727 21.9856C80.7408 16.5252 76.3486 8.99677 69.6557 9.76173C66.0813 5.663 61.0689 2.85161 55.4108 2.12186C54.1666 1.70514 40.0587 -0.92236 28.4962 2.13946C22.6014 3.69679 17.053 6.81339 13.2595 11.6477C8.03186 7.25163 0.00265523 10.9963 0.00265523 17.8262C0.00265523 22.8464 4.20312 23.6916 1.9454 26.366C-2.41158 31.2004 0.957399 39.6894 8.07295 39.6894C9.957 39.6894 11.6924 39.0418 13.0677 37.956C22.0262 49.3463 40.7337 50.5593 55.3913 47.3253C60.8243 46.6288 65.6645 44.0111 69.2057 40.1785C75.8126 41.2506 80.8621 34.497 78.1348 28.4731ZM8.07295 37.3416C2.77884 37.3416 0.753925 30.8756 3.6788 27.9507C5.45719 25.92 5.16764 23.2572 3.72184 21.5395C-0.887523 16.1456 6.67019 8.84808 11.9037 13.5768C7.38624 20.7999 7.95165 29.8622 11.7217 36.023C10.7298 36.8467 9.46006 37.3416 8.07295 37.3416ZM41.6825 4.62219C32.0236 9.67958 28.234 20.2659 30.2511 29.6861C32.0843 38.2455 21.3239 43.6727 15.5857 37.0638C4.44376 24.2257 12.8682 2.98855 41.2913 3.0179C42.1795 3.0179 42.471 4.20939 41.6825 4.62219ZM32.0334 24.7207C32.0334 6.45733 54.3642 -2.67336 67.1319 10.4895C66.4334 10.8261 65.7878 11.2623 65.2165 11.7886C53.8614 0.674106 34.4731 8.65245 34.4731 24.7207C34.4731 40.7889 52.7853 48.4503 64.3615 38.4392C64.6237 38.2123 65.0091 38.2142 65.2811 38.4314C65.4865 38.5957 65.6978 38.7503 65.9169 38.895C66.3102 39.1552 66.363 39.7148 66.0108 40.0298C52.9829 51.6588 32.0315 42.3501 32.0315 24.7226L32.0334 24.7207ZM52.5623 16.3725C47.9999 16.3725 44.2787 20.0467 44.2024 24.5915C44.1222 29.2694 48.0331 33.0981 52.711 33.0981H61.7067C62.3269 33.0981 62.2623 33.7359 62.6966 34.8883C63.0351 35.7863 62.7181 36.7958 61.9512 37.3729C51.8228 44.9932 36.8208 37.8053 36.8208 24.7207C36.8208 11.636 53.0866 3.98243 63.0586 12.9781C63.4518 13.3322 63.5633 13.8937 63.3481 14.377C63.1935 14.7233 63.0644 15.0852 62.9607 15.4589C62.6105 16.7188 62.1977 16.3706 52.5603 16.3706L52.5623 16.3725ZM76.5247 32.2197C76.3428 36.0641 72.3575 39.079 68.384 37.5412C63.4049 35.6337 65.7232 30.7504 61.7067 30.7504H52.5623C49.2461 30.7504 46.5482 28.0525 46.5482 24.7363C46.5482 21.4201 49.2461 18.7203 52.5623 18.7203H61.7732C63.3775 18.7203 64.7978 17.6364 65.2263 16.083C67.2845 8.61723 79.5728 12.3971 74.9419 20.8078C72.3692 24.6678 76.7008 28.5572 76.5247 32.2197Z" class="fill-current" />
</svg>
