<svg width="399" height="85" viewBox="0 0 399 85" fill="none" xmlns="http://www.w3.org/2000/svg">
<g clip-path="url(#clip0_216_7)">
<path d="M89.7617 46.3917C88.6469 43.74 87.1185 41.4599 88.4266 39.0152C92.7555 32.8065 87.7096 24.2465 80.0206 25.1163C75.9142 20.4559 70.1559 17.2593 63.6558 16.4295C62.2263 15.9557 46.0189 12.9682 32.7356 16.4496C25.9636 18.2203 19.5894 21.7639 15.2313 27.2607C9.22569 22.2622 0.00153967 26.52 0.00153967 34.2858C0.00153967 39.994 4.82714 40.955 2.23341 43.9959C-2.772 49.4927 1.09837 59.1449 9.27289 59.1449C11.4373 59.1449 13.431 58.4086 15.011 57.174C25.3028 70.1252 46.7943 71.5044 63.6333 67.8272C69.8749 67.0353 75.4355 64.0589 79.5036 59.701C87.0938 60.9201 92.8949 53.241 89.7617 46.3917ZM9.27289 56.4755C3.19089 56.4755 0.864617 49.1234 4.22478 45.7977C6.26785 43.4887 5.9352 40.4611 4.27423 38.508C-1.02112 32.3749 7.66136 24.0774 13.6737 29.4541C8.48398 37.6671 9.13354 47.9711 13.4647 54.9761C12.3251 55.9127 10.8664 56.4755 9.27289 56.4755ZM47.8844 19.2725C36.788 25.0229 32.4344 37.0598 34.7517 47.7709C36.8577 57.5032 24.4959 63.674 17.9037 56.1596C5.10359 41.5622 14.7818 17.415 47.4349 17.4484C48.4553 17.4484 48.7902 18.8031 47.8844 19.2725ZM36.7993 42.125C36.7993 21.3591 62.4534 10.9772 77.1212 25.9438C76.3188 26.3265 75.5771 26.8225 74.9208 27.4209C61.8757 14.7834 39.602 23.855 39.602 42.125C39.602 60.3951 60.6395 69.1063 73.9386 57.7234C74.2398 57.4654 74.6825 57.4676 74.995 57.7145C75.231 57.9014 75.4737 58.0771 75.7254 58.2417C76.1772 58.5376 76.2379 59.1738 75.8333 59.532C60.8666 72.7546 36.797 62.1703 36.797 42.1273L36.7993 42.125ZM60.3833 32.633C55.1419 32.633 50.867 36.8106 50.7793 41.9782C50.6872 47.2971 55.1801 51.6505 60.5541 51.6505H70.8886C71.6011 51.6505 71.5269 52.3757 72.0259 53.6859C72.4147 54.707 72.0506 55.8548 71.1696 56.511C59.5337 65.1756 42.2991 57.0027 42.2991 42.125C42.2991 27.2474 60.9857 18.5451 72.4417 28.7734C72.8935 29.1761 73.0216 29.8145 72.7743 30.364C72.5968 30.7577 72.4484 31.1693 72.3293 31.5941C71.927 33.0267 71.4528 32.6308 60.3811 32.6308L60.3833 32.633ZM87.9119 50.6517C87.7029 55.0228 83.1245 58.4509 78.5597 56.7024C72.8395 54.5335 75.5029 48.981 70.8886 48.981H60.3833C56.5736 48.981 53.4742 45.9134 53.4742 42.1428C53.4742 38.3723 56.5736 35.3024 60.3833 35.3024H70.965C72.808 35.3024 74.4398 34.07 74.932 32.3038C77.2965 23.815 91.4137 28.1128 86.0936 37.676C83.138 42.065 88.1142 46.4873 87.9119 50.6517Z" fill="black"/>
</g>
<path d="M113.6 37.368H131.712V18.744H144.256V67H131.712V47.096H113.6V67H101.056V18.744H113.6V37.368ZM162.113 50.488C162.113 51.5547 162.305 52.5573 162.689 53.496C163.073 54.392 163.585 55.1813 164.225 55.864C164.907 56.5467 165.697 57.08 166.593 57.464C167.531 57.848 168.534 58.04 169.601 58.04C170.625 58.04 171.585 57.848 172.481 57.464C173.419 57.08 174.209 56.5467 174.849 55.864C175.531 55.1813 176.065 54.392 176.449 53.496C176.875 52.6 177.089 51.64 177.089 50.616C177.089 49.592 176.875 48.632 176.449 47.736C176.065 46.7973 175.531 45.9867 174.849 45.304C174.209 44.6213 173.419 44.088 172.481 43.704C171.585 43.32 170.625 43.128 169.601 43.128C168.534 43.128 167.531 43.32 166.593 43.704C165.697 44.088 164.907 44.6213 164.225 45.304C163.585 45.9867 163.073 46.776 162.689 47.672C162.305 48.5253 162.113 49.464 162.113 50.488ZM176.705 34.168H188.353V67H176.705V63.352C174.23 66.4667 170.881 68.024 166.657 68.024C164.267 68.024 162.07 67.5973 160.065 66.744C158.059 65.848 156.31 64.6107 154.817 63.032C153.323 61.4533 152.15 59.5973 151.297 57.464C150.486 55.3307 150.081 53.0053 150.081 50.488C150.081 48.1413 150.486 45.9227 151.297 43.832C152.107 41.6987 153.238 39.8427 154.689 38.264C156.139 36.6853 157.867 35.448 159.873 34.552C161.878 33.6133 164.097 33.144 166.529 33.144C170.625 33.144 174.017 34.5733 176.705 37.432V34.168ZM194.316 34.168H205.9V38.2C209.057 35.1707 212.598 33.656 216.524 33.656C221.388 33.656 225.1 35.704 227.66 39.8C230.262 35.6613 233.974 33.592 238.796 33.592C240.332 33.592 241.782 33.8267 243.148 34.296C244.513 34.7227 245.686 35.4267 246.668 36.408C247.649 37.3467 248.417 38.584 248.972 40.12C249.569 41.656 249.868 43.512 249.868 45.688V67H238.284V50.808C238.284 49.144 238.156 47.7787 237.9 46.712C237.686 45.6453 237.345 44.8133 236.876 44.216C236.449 43.6187 235.937 43.2133 235.34 43C234.742 42.7867 234.102 42.68 233.42 42.68C229.708 42.68 227.852 45.3893 227.852 50.808V67H216.268V50.808C216.268 49.144 216.161 47.7787 215.948 46.712C215.734 45.6027 215.414 44.728 214.988 44.088C214.604 43.448 214.092 43.0213 213.452 42.808C212.812 42.552 212.065 42.424 211.212 42.424C210.486 42.424 209.804 42.5307 209.164 42.744C208.524 42.9573 207.948 43.384 207.436 44.024C206.966 44.6213 206.582 45.4747 206.284 46.584C206.028 47.6507 205.9 49.0587 205.9 50.808V67H194.316V34.168ZM267.48 34.168V67H255.896V34.168H267.48ZM255.128 21.56C255.128 20.664 255.298 19.832 255.64 19.064C255.981 18.2533 256.45 17.5493 257.048 16.952C257.645 16.3547 258.328 15.8853 259.096 15.544C259.906 15.2027 260.76 15.032 261.656 15.032C262.552 15.032 263.384 15.2027 264.152 15.544C264.962 15.8853 265.666 16.3547 266.264 16.952C266.861 17.5493 267.33 18.2533 267.672 19.064C268.013 19.832 268.184 20.664 268.184 21.56C268.184 22.456 268.013 23.3093 267.672 24.12C267.33 24.888 266.861 25.5707 266.264 26.168C265.666 26.7653 264.962 27.2347 264.152 27.576C263.384 27.9173 262.552 28.088 261.656 28.088C260.76 28.088 259.906 27.9173 259.096 27.576C258.328 27.2347 257.645 26.7653 257.048 26.168C256.45 25.5707 255.981 24.888 255.64 24.12C255.298 23.3093 255.128 22.456 255.128 21.56ZM286.02 43.832V67H274.436V43.832H270.276V34.168H274.436V29.24C274.436 26.5093 274.692 24.3333 275.204 22.712C275.63 21.3467 276.313 20.088 277.252 18.936C278.19 17.7413 279.278 16.7173 280.516 15.864C281.796 15.0107 283.161 14.3493 284.612 13.88C286.062 13.4107 287.492 13.176 288.9 13.176C289.881 13.176 290.777 13.2827 291.588 13.496C292.441 13.7093 293.294 14.008 294.148 14.392V24.504C293.38 24.12 292.654 23.8427 291.972 23.672C291.332 23.4587 290.649 23.352 289.924 23.352C289.454 23.352 288.964 23.4373 288.452 23.608C287.982 23.736 287.534 24.0347 287.108 24.504C286.681 24.9733 286.382 25.656 286.212 26.552C286.084 27.4053 286.02 28.5787 286.02 30.072V34.168H294.148V43.832H286.02ZM308.062 50.424C308.062 51.5333 308.254 52.5573 308.638 53.496C309.065 54.392 309.598 55.1813 310.238 55.864C310.921 56.5467 311.71 57.08 312.606 57.464C313.545 57.848 314.526 58.04 315.55 58.04C316.574 58.04 317.534 57.848 318.43 57.464C319.369 57.08 320.158 56.5467 320.798 55.864C321.481 55.1813 322.014 54.392 322.398 53.496C322.825 52.5573 323.038 51.5547 323.038 50.488C323.038 49.464 322.825 48.504 322.398 47.608C322.014 46.6693 321.481 45.8587 320.798 45.176C320.158 44.4933 319.369 43.96 318.43 43.576C317.534 43.192 316.574 43 315.55 43C314.526 43 313.545 43.192 312.606 43.576C311.71 43.96 310.921 44.4933 310.238 45.176C309.598 45.8587 309.065 46.648 308.638 47.544C308.254 48.44 308.062 49.4 308.062 50.424ZM295.838 50.296C295.838 47.864 296.329 45.6027 297.31 43.512C298.291 41.3787 299.657 39.544 301.406 38.008C303.155 36.4293 305.225 35.192 307.614 34.296C310.046 33.4 312.691 32.952 315.55 32.952C318.366 32.952 320.969 33.4 323.358 34.296C325.79 35.1493 327.881 36.3653 329.63 37.944C331.422 39.48 332.809 41.336 333.79 43.512C334.771 45.6453 335.262 48.0133 335.262 50.616C335.262 53.2187 334.75 55.608 333.726 57.784C332.745 59.9173 331.379 61.7733 329.63 63.352C327.881 64.888 325.769 66.0827 323.294 66.936C320.862 67.7893 318.217 68.216 315.358 68.216C312.542 68.216 309.939 67.7893 307.55 66.936C305.161 66.0827 303.091 64.8667 301.342 63.288C299.635 61.7093 298.291 59.832 297.31 57.656C296.329 55.4373 295.838 52.984 295.838 50.296ZM351.594 13.88V67H340.01V13.88H351.594ZM368.342 50.488C368.342 51.5547 368.534 52.5573 368.918 53.496C369.302 54.392 369.814 55.1813 370.454 55.864C371.137 56.5467 371.926 57.08 372.822 57.464C373.761 57.848 374.764 58.04 375.83 58.04C376.854 58.04 377.814 57.848 378.71 57.464C379.649 57.08 380.438 56.5467 381.078 55.864C381.761 55.1813 382.294 54.392 382.678 53.496C383.105 52.6 383.318 51.64 383.318 50.616C383.318 49.592 383.105 48.632 382.678 47.736C382.294 46.7973 381.761 45.9867 381.078 45.304C380.438 44.6213 379.649 44.088 378.71 43.704C377.814 43.32 376.854 43.128 375.83 43.128C374.806 43.128 373.825 43.32 372.886 43.704C371.99 44.088 371.201 44.6213 370.518 45.304C369.878 45.9867 369.345 46.776 368.918 47.672C368.534 48.5253 368.342 49.464 368.342 50.488ZM382.934 13.88H394.583V67H382.934V63.352C380.46 66.4667 377.11 68.024 372.886 68.024C370.497 68.024 368.3 67.576 366.294 66.68C364.289 65.784 362.54 64.5467 361.046 62.968C359.553 61.3893 358.38 59.5333 357.526 57.4C356.716 55.2667 356.31 52.9627 356.31 50.488C356.31 48.1413 356.694 45.9227 357.462 43.832C358.273 41.6987 359.404 39.8427 360.854 38.264C362.305 36.6853 364.033 35.448 366.038 34.552C368.086 33.6133 370.326 33.144 372.758 33.144C376.854 33.144 380.246 34.5733 382.934 37.432V13.88Z" fill="black"/>
<defs>
<clipPath id="clip0_216_7">
<rect width="91" height="56" fill="white" transform="translate(0 14)"/>
</clipPath>
</defs>
</svg>
