<svg width="24" height="25" viewBox="0 0 24 25" fill="none" xmlns="http://www.w3.org/2000/svg">
<g clip-path="url(#clip0_117_1131)">
<path fill-rule="evenodd" clip-rule="evenodd" d="M24 12.838C24 19.4654 18.6274 24.838 12 24.838C5.37258 24.838 0 19.4654 0 12.838C0 6.2106 5.37258 0.838013 12 0.838013C18.6274 0.838013 24 6.2106 24 12.838ZM12.43 9.69694C11.2628 10.1824 8.93014 11.1872 5.43189 12.7113C4.86383 12.9372 4.56626 13.1582 4.53917 13.3743C4.49339 13.7395 4.95071 13.8833 5.57348 14.0791C5.65819 14.1058 5.74596 14.1334 5.83594 14.1626C6.44864 14.3618 7.27283 14.5948 7.70129 14.604C8.08994 14.6124 8.52373 14.4522 9.00264 14.1234C12.2712 11.917 13.9584 10.8018 14.0643 10.7778C14.139 10.7608 14.2426 10.7395 14.3128 10.8019C14.3829 10.8642 14.376 10.9823 14.3686 11.014C14.3233 11.2072 12.5281 12.8761 11.5991 13.7398C11.3095 14.009 11.1041 14.2 11.0621 14.2436C10.968 14.3414 10.8721 14.4338 10.78 14.5226C10.2108 15.0713 9.78391 15.4828 10.8036 16.1548C11.2936 16.4777 11.6857 16.7447 12.0769 17.0111C12.5042 17.3021 12.9303 17.5923 13.4816 17.9537C13.6221 18.0457 13.7562 18.1414 13.8869 18.2345C14.3841 18.589 14.8307 18.9074 15.3826 18.8566C15.7032 18.8271 16.0345 18.5256 16.2027 17.6264C16.6002 15.5012 17.3816 10.8965 17.5622 8.99899C17.578 8.83274 17.5581 8.61998 17.5422 8.52659C17.5262 8.43319 17.4928 8.30012 17.3714 8.20161C17.2276 8.08495 17.0056 8.06035 16.9064 8.0621C16.455 8.07005 15.7626 8.31083 12.43 9.69694Z" fill="#202939"/>
</g>
<defs>
<clipPath id="clip0_117_1131">
<rect width="24" height="24" fill="white" transform="translate(0 0.838013)"/>
</clipPath>
</defs>
</svg>
