<svg class="stroke-current" viewBox="0 0 21 21" fill="none" xmlns="http://www.w3.org/2000/svg">
<path d="M14.25 12.557H14.2583M3 5.05705V16.7237C3 17.6442 3.74619 18.3904 4.66667 18.3904H16.3333C17.2538 18.3904 18 17.6442 18 16.7237V8.39038C18 7.46991 17.2538 6.72372 16.3333 6.72371L4.66667 6.72371C3.74619 6.72371 3 5.97752 3 5.05705ZM3 5.05705C3 4.13657 3.74619 3.39038 4.66667 3.39038H14.6667M14.6667 12.557C14.6667 12.7872 14.4801 12.9737 14.25 12.9737C14.0199 12.9737 13.8333 12.7872 13.8333 12.557C13.8333 12.3269 14.0199 12.1404 14.25 12.1404C14.4801 12.1404 14.6667 12.3269 14.6667 12.557Z"  stroke-width="1.66667" stroke-linecap="round" stroke-linejoin="round"/>
</svg>
